<svg xmlns="http://www.w3.org/2000/svg" version="1.1" xmlns:xlink="http://www.w3.org/1999/xlink" xmlns:svgjs="http://svgjs.dev/svgjs" width="1440" height="560" preserveAspectRatio="none" viewBox="0 0 1440 560"><g clip-path="url(&quot;#SvgjsClipPath1049&quot;)" fill="none"><rect width="1440" height="560" x="0" y="0" fill="#0e2a47"></rect><circle r="93.335" cx="-37.88" cy="-31.16" stroke="#365aa3" stroke-opacity="0.25" stroke-width="2"></circle><circle r="93.335" cx="293.93" cy="442.48" stroke="#365aa3" stroke-opacity="0.25" stroke-width="2"></circle><circle r="93.335" cx="663.96" cy="796.73" stroke="#365aa3" stroke-opacity="0.25" stroke-width="2"></circle><circle r="165.285" cx="455.66" cy="36.06" stroke="#365aa3" stroke-opacity="0.25" stroke-width="2"></circle><circle r="80.945" cx="1421.27" cy="158.46" stroke="#365aa3" stroke-opacity="0.25" stroke-width="2"></circle><circle r="164.375" cx="1042.21" cy="323.49" stroke="#365aa3" stroke-opacity="0.25" stroke-width="2"></circle><circle r="166.655" cx="981.2" cy="520.99" stroke="#365aa3" stroke-opacity="0.25" stroke-width="2"></circle><circle r="119.22" cx="136.17" cy="256.17" stroke="#365aa3" stroke-opacity="0.25" stroke-width="2"></circle><circle r="71.795" cx="1120.61" cy="243.66" stroke="#365aa3" stroke-opacity="0.25" stroke-width="2"></circle><circle r="176.68" cx="865.39" cy="371.49" stroke="#365aa3" stroke-opacity="0.25" stroke-width="2"></circle><circle r="85.345" cx="931.45" cy="447.89" stroke="#365aa3" stroke-opacity="0.25" stroke-width="2"></circle><circle r="74.36" cx="287.11" cy="201.85" stroke="#365aa3" stroke-opacity="0.25" stroke-width="2"></circle><circle r="144.315" cx="1110.97" cy="413.01" stroke="#365aa3" stroke-opacity="0.25" stroke-width="2"></circle><circle r="113.72" cx="409.06" cy="100.43" stroke="#365aa3" stroke-opacity="0.25" stroke-width="2"></circle><circle r="76.535" cx="369.97" cy="333.54" stroke="#365aa3" stroke-opacity="0.25" stroke-width="2"></circle><circle r="129.015" cx="1106.56" cy="45.24" stroke="#365aa3" stroke-opacity="0.25" stroke-width="2"></circle><circle r="69.3" cx="721.35" cy="121.71" stroke="#365aa3" stroke-opacity="0.25" stroke-width="2"></circle><circle r="55.675" cx="571.72" cy="372.76" stroke="#365aa3" stroke-opacity="0.25" stroke-width="2"></circle><circle r="53.565" cx="696.92" cy="274.03" stroke="#365aa3" stroke-opacity="0.25" stroke-width="2"></circle><circle r="183.695" cx="1146.53" cy="166.92" stroke="#365aa3" stroke-opacity="0.25" stroke-width="2"></circle><circle r="181.07" cx="561.65" cy="414.06" stroke="#365aa3" stroke-opacity="0.25" stroke-width="2"></circle><circle r="78.03" cx="377.24" cy="216.29" stroke="#365aa3" stroke-opacity="0.25" stroke-width="2"></circle><circle r="66.03" cx="248.67" cy="175.98" stroke="#365aa3" stroke-opacity="0.25" stroke-width="2"></circle><circle r="112.535" cx="1269.69" cy="397.05" stroke="#365aa3" stroke-opacity="0.25" stroke-width="2"></circle><circle r="119.025" cx="20.35" cy="428.65" stroke="#365aa3" stroke-opacity="0.25" stroke-width="2"></circle><circle r="118.315" cx="1397.21" cy="558.79" stroke="#365aa3" stroke-opacity="0.25" stroke-width="2"></circle><circle r="107.77" cx="792.6" cy="217.82" stroke="#365aa3" stroke-opacity="0.25" stroke-width="2"></circle><circle r="133.305" cx="707.61" cy="144.38" stroke="#365aa3" stroke-opacity="0.25" stroke-width="2"></circle><circle r="57.48" cx="1157.16" cy="158.05" stroke="#365aa3" stroke-opacity="0.25" stroke-width="2"></circle><circle r="79.56" cx="284.3" cy="550.77" stroke="#365aa3" stroke-opacity="0.25" stroke-width="2"></circle><circle r="121.25" cx="83.14" cy="115.24" stroke="#365aa3" stroke-opacity="0.25" stroke-width="2"></circle><circle r="132.71" cx="1431.82" cy="443.19" stroke="#365aa3" stroke-opacity="0.25" stroke-width="2"></circle><circle r="154.29" cx="870.58" cy="489.23" stroke="#365aa3" stroke-opacity="0.25" stroke-width="2"></circle><circle r="79.825" cx="1405.29" cy="89.66" stroke="#365aa3" stroke-opacity="0.25" stroke-width="2"></circle><circle r="72.09" cx="11.29" cy="370.38" stroke="#365aa3" stroke-opacity="0.25" stroke-width="2"></circle><circle r="117.25" cx="1099.8" cy="442.8" stroke="#365aa3" stroke-opacity="0.25" stroke-width="2"></circle><circle r="142.88" cx="765.8" cy="388.62" stroke="#365aa3" stroke-opacity="0.25" stroke-width="2"></circle><circle r="65.425" cx="956.28" cy="537.06" stroke="#365aa3" stroke-opacity="0.25" stroke-width="2"></circle><circle r="59.255" cx="1402.44" cy="253.09" stroke="#365aa3" stroke-opacity="0.25" stroke-width="2"></circle><circle r="97.73" cx="484.85" cy="269.4" stroke="#365aa3" stroke-opacity="0.25" stroke-width="2"></circle><circle r="124.465" cx="729.34" cy="460.09" stroke="#365aa3" stroke-opacity="0.25" stroke-width="2"></circle><circle r="113.44" cx="445.38" cy="430.73" stroke="#365aa3" stroke-opacity="0.25" stroke-width="2"></circle><circle r="150.35" cx="537.76" cy="333.19" stroke="#365aa3" stroke-opacity="0.25" stroke-width="2"></circle><circle r="58.48" cx="1207.58" cy="320.12" stroke="#365aa3" stroke-opacity="0.25" stroke-width="2"></circle><circle r="131.42" cx="428.59" cy="174.39" stroke="#365aa3" stroke-opacity="0.25" stroke-width="2"></circle><circle r="139.51" cx="977.36" cy="500" stroke="#365aa3" stroke-opacity="0.25" stroke-width="2"></circle></g><defs><clipPath id="SvgjsClipPath1049"><rect width="1440" height="560" x="0" y="0"></rect></clipPath></defs></svg>